<?xml version="1.0" encoding="UTF-8"?>
<svg id="Layer_2" data-name="Layer 2" xmlns="http://www.w3.org/2000/svg" viewBox="0 0 1018.88 267.06">
  <defs>
    <style>
      .cls-1 {
        fill: #121212;
        stroke-width: 0px;
      }
    </style>
  </defs>
  <g id="Layer_1-2" data-name="Layer 1">
    <g>
      <path class="cls-1" d="M0,205.1v-122.35h42.21v17.65h.48c.32-.63.83-1.42,1.54-2.38.72-.96,2.27-2.63,4.65-5s4.94-4.53,7.65-6.44c2.71-1.92,6.21-3.63,10.5-5.15,4.29-1.51,8.66-2.27,13.1-2.27s9.14.64,13.58,1.92c4.46,1.28,7.72,2.55,9.79,3.81l3.35,1.92-17.67,35.77c-5.24-4.46-12.55-6.69-21.94-6.69-5.08,0-9.46,1.12-13.13,3.35-3.66,2.22-6.24,4.93-7.75,8.1-1.5,3.18-2.57,5.89-3.21,8.1-.64,2.22-.96,3.97-.96,5.25v64.4H0Z"/>
      <path class="cls-1" d="M223.94,149.77h-88.71c0,8.58,2.78,14.95,8.33,19.08,5.57,4.14,11.61,6.21,18.13,6.21,6.84,0,12.26-.92,16.23-2.75,3.97-1.83,8.5-5.45,13.58-10.85l30.54,15.27c-12.72,21.31-33.87,31.96-63.44,31.96-18.45,0-34.27-6.32-47.48-18.96-13.2-12.65-19.79-27.88-19.79-45.69s6.59-33.07,19.79-45.79c13.21-12.72,29.03-19.08,47.48-19.08,19.39,0,35.17,5.61,47.33,16.83,12.17,11.21,18.25,27.22,18.25,48.04,0,2.86-.08,4.77-.25,5.73ZM136.42,126.4h46.5c-.95-6.36-3.45-11.25-7.5-14.67-4.06-3.42-9.27-5.13-15.63-5.13-7,0-12.57,1.83-16.71,5.5-4.13,3.66-6.35,8.42-6.67,14.29Z"/>
      <path class="cls-1" d="M233.72,189.96c-11.45-12.48-17.17-27.79-17.17-45.92s5.72-33.46,17.17-46.02c11.46-12.57,26.01-18.85,43.67-18.85,16.21,0,29.56,5.09,40.06,15.27V0h42.21v205.1h-41.73v-13.83h-.48c-10.5,11.61-23.85,17.42-40.06,17.42-17.66,0-32.21-6.24-43.67-18.73ZM269.61,123.31c-5.47,5.41-8.21,12.32-8.21,20.75s2.61,15.29,7.85,20.63c5.25,5.32,12.17,7.98,20.75,7.98s15.07-2.7,20.4-8.1c5.33-5.4,8-12.24,8-20.52s-2.74-15.32-8.23-20.73c-5.49-5.42-12.21-8.13-20.17-8.13s-14.91,2.71-20.4,8.13Z"/>
      <path class="cls-1" d="M495.6,98.02c11.46,12.56,17.19,27.9,17.19,46.02s-5.73,33.43-17.19,45.92c-11.45,12.49-25.99,18.73-43.65,18.73-16.21,0-29.56-5.8-40.06-17.42h-.48v13.83h-41.73V0h42.21v94.44c10.5-10.18,23.85-15.27,40.06-15.27,17.65,0,32.2,6.29,43.65,18.85ZM460.06,164.69c5.25-5.33,7.88-12.21,7.88-20.63s-2.74-15.34-8.23-20.75c-5.47-5.42-12.27-8.13-20.38-8.13s-14.68,2.71-20.17,8.13c-5.49,5.41-8.23,12.31-8.23,20.73s2.66,15.12,7.98,20.52c5.33,5.41,12.14,8.1,20.42,8.1s15.49-2.66,20.73-7.98Z"/>
      <g>
        <path class="cls-1" d="M636.2,143.19c.6-.13,1.2-.26,1.79-.4,43.25-9.57,53.7-19.88,63.28-62.79h0s.01-.07.02-.1c-3.24-.48-6.58-.73-10.09-.73-17.66,0-32.21,6.29-43.67,18.85-5.84,6.4-10.19,13.53-13.05,21.38-2.75,7.55-4.12,15.76-4.12,24.64,0,1.94.07,3.85.2,5.73,1.09,15.65,6.75,29.05,16.97,40.19,11.46,12.49,26.01,18.73,43.67,18.73,3.34,0,6.57-.25,9.67-.74-9.47-41.43-20.24-51.57-62.9-61-.58-.13-1.17-.26-1.77-.39h-5.59v-3.37h5.59Z"/>
        <path class="cls-1" d="M773.47,82.75v122.36h-41.73v-13.84h-.48c-7.02,7.76-15.31,12.93-24.87,15.5,9.54-41.01,20.68-50.75,64.39-60.21h2.68v-3.37h-2.68c-44.5-9.62-55.24-19.58-64.89-62.45,9.77,2.21,18.23,6.78,25.37,13.7v-11.69h42.21Z"/>
      </g>
      <path class="cls-1" d="M630.61,146.56v-3.37h5.59c.6-.13,1.2-.26,1.79-.4-.1-8.64-1.27-16.43-3.51-23.39-2.99-9.31-7.9-17.11-14.73-23.4-12.16-11.22-27.94-16.83-47.33-16.83s-34.27,6.36-47.48,19.08c-13.2,12.73-19.79,27.99-19.79,45.79s6.59,33.04,19.79,45.69c13.21,12.64,29.03,18.96,47.48,18.96,29.57,0,50.72-10.65,63.44-31.96l-30.54-15.27c-5.09,5.41-9.62,9.02-13.59,10.86-3.97,1.83-9.38,2.75-16.23,2.75s-12.55-2.07-18.12-6.21c-5.56-4.14-8.33-10.5-8.33-19.09h88.7c.1-.58.17-1.52.22-2.82-.58-.13-1.17-.26-1.77-.39h-5.59ZM550.23,126.4c.32-5.88,2.55-10.64,6.67-14.29,4.14-3.67,9.71-5.5,16.71-5.5,6.36,0,11.57,1.71,15.62,5.12,4.06,3.42,6.56,8.31,7.5,14.67h-46.5Z"/>
      <path class="cls-1" d="M783.48,205.1v-122.35h42.21v12.88h.48c10.97-10.97,22.66-16.46,35.06-16.46,6.04,0,12.04.8,18,2.4,5.97,1.58,11.69,4.05,17.17,7.4,5.48,3.33,9.94,8.06,13.35,14.19,3.43,6.13,5.15,13.24,5.15,21.35v80.6h-42.23v-69.17c0-6.36-2.03-11.92-6.08-16.69-4.04-4.78-9.33-7.17-15.85-7.17s-12.13,2.47-17.29,7.4c-5.17,4.93-7.75,10.42-7.75,16.46v69.17h-42.21Z"/>
      <path class="cls-1" d="M975.72,79.17c6.98,0,13.9.8,20.73,2.4,6.84,1.58,11.94,3.18,15.27,4.77l5.02,2.38-13.83,27.67c-9.54-5.08-18.6-7.63-27.19-7.63-4.78,0-8.16.52-10.15,1.56-1.99,1.03-2.98,2.97-2.98,5.83,0,.64.07,1.28.23,1.92.17.63.48,1.22.96,1.77.48.56.92,1.04,1.31,1.44.4.41,1.07.84,2.02,1.31.96.47,1.71.83,2.27,1.08.55.24,1.47.59,2.75,1.06,1.28.47,2.23.83,2.85,1.08.64.24,1.71.59,3.23,1.06,1.51.47,2.67.79,3.46.96,4.93,1.43,9.22,3.02,12.88,4.77,3.65,1.75,7.51,4.14,11.56,7.17,4.05,3.02,7.19,6.83,9.42,11.44,2.23,4.61,3.35,9.85,3.35,15.73,0,27.83-19.32,41.75-57.96,41.75-8.75,0-17.06-1.35-24.94-4.06-7.86-2.71-13.54-5.41-17.04-8.1l-5.25-4.29,17.19-28.85c1.26,1.11,2.93,2.43,5,3.94,2.07,1.5,5.8,3.56,11.21,6.19,5.4,2.63,10.09,3.94,14.06,3.94,8.75,0,13.13-2.94,13.13-8.83,0-2.69-1.11-4.8-3.33-6.31-2.22-1.51-6-3.22-11.33-5.13-5.32-1.9-9.49-3.65-12.52-5.25-7.63-3.97-13.67-8.46-18.13-13.46-4.46-5.01-6.69-11.66-6.69-19.94,0-12.4,4.81-22.06,14.44-28.98s22.63-10.38,39-10.38Z"/>
      <path class="cls-1" d="M382.73,266.73c-1.64,0-3.16-.31-4.56-.92-1.39-.61-2.6-1.44-3.63-2.48-1.02-1.05-1.82-2.3-2.42-3.75-.58-1.44-.88-2.99-.88-4.65s.3-3.29.92-4.75c.61-1.47,1.44-2.75,2.48-3.83,1.05-1.08,2.28-1.93,3.69-2.54,1.4-.63,2.9-.94,4.5-.94,1.72,0,3.33.36,4.83,1.08,1.5.72,2.79,1.71,3.88,2.96l-1.83,1.56c-.91-1.04-1.95-1.84-3.13-2.4-1.17-.55-2.45-.83-3.83-.83-1.29,0-2.48.24-3.56.71-1.07.47-2.01,1.14-2.81,2-.79.85-1.42,1.85-1.88,3-.45,1.16-.67,2.43-.67,3.81s.22,2.66.67,3.83c.46,1.17,1.09,2.18,1.9,3.02.8.83,1.76,1.49,2.85,1.98,1.11.49,2.32.73,3.65.73,1.46,0,2.77-.28,3.94-.85,1.18-.58,2.17-1.36,2.98-2.33l1.73,1.5c-1.08,1.27-2.38,2.27-3.88,3-1.5.72-3.15,1.08-4.94,1.08Z"/>
      <path class="cls-1" d="M416.77,266.73c-1.6,0-3.1-.31-4.5-.94-1.41-.63-2.64-1.48-3.69-2.56-1.04-1.08-1.87-2.34-2.48-3.77-.61-1.44-.92-3-.92-4.67s.3-3.18.92-4.63c.61-1.46,1.44-2.73,2.48-3.81,1.05-1.08,2.28-1.93,3.69-2.54,1.4-.63,2.9-.94,4.5-.94s3.07.31,4.48.94c1.42.61,2.65,1.46,3.69,2.54,1.05,1.08,1.88,2.35,2.48,3.79.61,1.45.92,2.99.92,4.65s-.31,3.18-.92,4.63c-.6,1.43-1.43,2.69-2.48,3.77-1.04,1.08-2.27,1.95-3.69,2.58-1.41.64-2.9.96-4.48.96ZM416.77,264.33c1.26,0,2.44-.24,3.54-.73,1.11-.48,2.06-1.15,2.85-2,.8-.84,1.44-1.85,1.9-3.02s.69-2.43.69-3.79-.23-2.61-.69-3.77c-.46-1.17-1.09-2.17-1.9-3.02-.79-.86-1.74-1.53-2.85-2.02-1.1-.48-2.28-.73-3.54-.73s-2.49.24-3.58.73c-1.1.49-2.04,1.16-2.83,2.02-.79.85-1.43,1.85-1.9,3.02-.46,1.16-.69,2.41-.69,3.77s.23,2.63.69,3.79c.47,1.17,1.1,2.18,1.9,3.02.79.85,1.73,1.52,2.83,2,1.09.49,2.29.73,3.58.73Z"/>
      <path class="cls-1" d="M450.29,242.52h.69l8.81,23.85h-2.67l-2.17-6.08h-8.79l-2.17,6.08h-2.52l8.81-23.85ZM454.17,258.04l-3.6-10.02-3.58,10.02h7.19Z"/>
      <path class="cls-1" d="M484.41,266.73c-1.64,0-3.16-.31-4.56-.92-1.39-.61-2.6-1.44-3.63-2.48-1.02-1.05-1.82-2.3-2.42-3.75-.58-1.44-.88-2.99-.88-4.65s.3-3.29.92-4.75c.61-1.47,1.44-2.75,2.48-3.83,1.05-1.08,2.28-1.93,3.69-2.54,1.4-.63,2.9-.94,4.5-.94,1.72,0,3.33.36,4.83,1.08,1.5.72,2.79,1.71,3.88,2.96l-1.83,1.56c-.91-1.04-1.95-1.84-3.13-2.4-1.17-.55-2.45-.83-3.83-.83-1.29,0-2.48.24-3.56.71-1.07.47-2.01,1.14-2.81,2-.79.85-1.42,1.85-1.88,3-.45,1.16-.67,2.43-.67,3.81s.22,2.66.67,3.83c.46,1.17,1.09,2.18,1.9,3.02.8.83,1.76,1.49,2.85,1.98,1.11.49,2.32.73,3.65.73,1.46,0,2.77-.28,3.94-.85,1.18-.58,2.17-1.36,2.98-2.33l1.73,1.5c-1.08,1.27-2.38,2.27-3.88,3-1.5.72-3.15,1.08-4.94,1.08Z"/>
      <path class="cls-1" d="M508.24,243.21h2.42v10.38h12.46v-10.38h2.42v23.17h-2.42v-10.54h-12.46v10.54h-2.42v-23.17Z"/>
      <path class="cls-1" d="M542.11,243.21h2.42v23.17h-2.42v-23.17Z"/>
      <path class="cls-1" d="M563.47,248.37v18h-2.35v-23.85h.69l15.63,18.71v-18.02h2.35v23.85h-.69l-15.63-18.69Z"/>
      <path class="cls-1" d="M606.47,266.73c-1.6,0-3.09-.31-4.48-.92-1.39-.61-2.6-1.45-3.65-2.52-1.04-1.08-1.86-2.33-2.46-3.75-.6-1.43-.9-2.98-.9-4.65s.3-3.21.92-4.67c.61-1.47,1.44-2.76,2.48-3.85,1.05-1.09,2.28-1.95,3.69-2.56,1.4-.63,2.9-.94,4.5-.94,1.72,0,3.33.36,4.83,1.08,1.5.72,2.79,1.71,3.88,2.96l-1.83,1.56c-.91-1.04-1.95-1.84-3.15-2.4-1.18-.55-2.44-.83-3.77-.83s-2.48.24-3.56.73c-1.08.49-2.03,1.16-2.83,2.02-.81.85-1.44,1.85-1.9,3.02-.45,1.16-.67,2.41-.67,3.77s.22,2.63.67,3.79c.46,1.17,1.09,2.18,1.9,3.02.8.85,1.76,1.52,2.85,2,1.11.49,2.31.73,3.6.73,1.46,0,2.78-.28,3.96-.85,1.19-.58,2.19-1.36,3-2.33v-4.96h-6.98v-2.25h9.4v7.67c-1.13,1.64-2.52,2.91-4.17,3.79-1.66.89-3.43,1.33-5.33,1.33Z"/>
      <path class="cls-1" d="M649.66,243.21h5.19c1.05,0,2.03.16,2.94.46.9.31,1.67.73,2.31,1.27.65.54,1.16,1.18,1.52,1.92.38.74.56,1.54.56,2.42,0,1.06-.27,2-.79,2.83-.53.83-1.28,1.52-2.25,2.04,1.33.49,2.39,1.23,3.17,2.23.79,1,1.19,2.17,1.19,3.5,0,.95-.2,1.81-.58,2.6-.39.78-.94,1.47-1.65,2.06-.71.58-1.56,1.04-2.54,1.35-.97.32-2.04.48-3.19.48h-5.88v-23.17ZM655.54,264.12c1.67,0,3.01-.4,4.02-1.19,1.01-.79,1.52-1.86,1.52-3.21s-.51-2.35-1.52-3.15c-1.02-.8-2.35-1.21-4.02-1.21h-3.46v8.75h3.46ZM654.85,253.25c1.5,0,2.69-.34,3.58-1.04.89-.69,1.33-1.63,1.33-2.81s-.45-2.15-1.35-2.85c-.91-.72-2.09-1.08-3.56-1.08h-2.77v7.79h2.77Z"/>
      <path class="cls-1" d="M687.2,266.73c-1.25,0-2.39-.24-3.42-.71-1.02-.47-1.89-1.13-2.63-1.98-.72-.86-1.29-1.89-1.69-3.08-.41-1.21-.6-2.53-.6-3.98v-13.77h2.42v13.56c0,1.16.15,2.21.44,3.17.29.95.7,1.76,1.23,2.44.53.67,1.17,1.19,1.92,1.56.75.36,1.58.54,2.5.54s1.75-.18,2.5-.54c.75-.38,1.39-.9,1.92-1.56.54-.68.95-1.49,1.23-2.44.29-.96.44-2.01.44-3.17v-13.56h2.35v13.77c0,1.45-.22,2.77-.65,3.98-.42,1.2-1.01,2.22-1.77,3.08-.77.85-1.68,1.51-2.75,1.98-1.06.47-2.2.71-3.44.71Z"/>
      <path class="cls-1" d="M717.78,266.73c-1.56,0-3-.38-4.33-1.13-1.32-.75-2.42-1.82-3.29-3.23l1.85-1.52c1.61,2.43,3.55,3.65,5.81,3.65,1.36,0,2.45-.36,3.27-1.1.83-.73,1.25-1.71,1.25-2.94,0-1.05-.38-1.96-1.13-2.71-.74-.76-1.94-1.48-3.6-2.17-2.1-.8-3.61-1.75-4.54-2.83-.93-1.08-1.4-2.36-1.4-3.85,0-.9.15-1.72.44-2.46.3-.73.73-1.36,1.29-1.9.55-.54,1.21-.95,1.98-1.23.78-.29,1.64-.44,2.58-.44,2.64,0,4.82,1.18,6.56,3.52l-1.88,1.52c-.68-.97-1.41-1.68-2.19-2.13-.78-.44-1.63-.67-2.54-.67-1.18,0-2.12.33-2.81.98-.68.64-1.02,1.5-1.02,2.58s.34,1.91,1.04,2.65c.71.72,1.88,1.41,3.52,2.04,2.09.81,3.64,1.77,4.63,2.9,1,1.11,1.5,2.44,1.5,3.98,0,.95-.18,1.82-.52,2.63-.35.79-.83,1.48-1.46,2.06-.63.57-1.37,1.02-2.23,1.33-.85.3-1.78.46-2.79.46Z"/>
      <path class="cls-1" d="M739.97,243.21h2.42v23.17h-2.42v-23.17Z"/>
      <path class="cls-1" d="M761.33,248.37v18h-2.35v-23.85h.69l15.63,18.71v-18.02h2.35v23.85h-.69l-15.63-18.69Z"/>
      <path class="cls-1" d="M794.23,243.21h11.94v2.25h-9.52v7.79h7.27v2.23h-7.27v8.65h9.69v2.25h-12.1v-23.17Z"/>
      <path class="cls-1" d="M827.44,266.73c-1.56,0-3-.38-4.33-1.13-1.32-.75-2.42-1.82-3.29-3.23l1.85-1.52c1.61,2.43,3.55,3.65,5.81,3.65,1.36,0,2.45-.36,3.27-1.1.83-.73,1.25-1.71,1.25-2.94,0-1.05-.38-1.96-1.13-2.71-.74-.76-1.94-1.48-3.6-2.17-2.1-.8-3.61-1.75-4.54-2.83-.93-1.08-1.4-2.36-1.4-3.85,0-.9.15-1.72.44-2.46.3-.73.73-1.36,1.29-1.9.55-.54,1.21-.95,1.98-1.23.78-.29,1.64-.44,2.58-.44,2.64,0,4.82,1.18,6.56,3.52l-1.88,1.52c-.68-.97-1.41-1.68-2.19-2.13-.78-.44-1.63-.67-2.54-.67-1.18,0-2.12.33-2.81.98-.68.64-1.02,1.5-1.02,2.58s.34,1.91,1.04,2.65c.71.72,1.88,1.41,3.52,2.04,2.09.81,3.64,1.77,4.63,2.9,1,1.11,1.5,2.44,1.5,3.98,0,.95-.18,1.82-.52,2.63-.35.79-.83,1.48-1.46,2.06-.63.57-1.37,1.02-2.23,1.33-.85.3-1.78.46-2.79.46Z"/>
      <path class="cls-1" d="M855.19,266.73c-1.56,0-3-.38-4.33-1.13-1.32-.75-2.42-1.82-3.29-3.23l1.85-1.52c1.61,2.43,3.55,3.65,5.81,3.65,1.36,0,2.45-.36,3.27-1.1.83-.73,1.25-1.71,1.25-2.94,0-1.05-.38-1.96-1.13-2.71-.74-.76-1.94-1.48-3.6-2.17-2.1-.8-3.61-1.75-4.54-2.83-.93-1.08-1.4-2.36-1.4-3.85,0-.9.15-1.72.44-2.46.3-.73.73-1.36,1.29-1.9.55-.54,1.21-.95,1.98-1.23.78-.29,1.64-.44,2.58-.44,2.64,0,4.82,1.18,6.56,3.52l-1.88,1.52c-.68-.97-1.41-1.68-2.19-2.13-.78-.44-1.63-.67-2.54-.67-1.18,0-2.12.33-2.81.98-.68.64-1.02,1.5-1.02,2.58s.34,1.91,1.04,2.65c.71.72,1.88,1.41,3.52,2.04,2.09.81,3.64,1.77,4.63,2.9,1,1.11,1.5,2.44,1.5,3.98,0,.95-.18,1.82-.52,2.63-.35.79-.83,1.48-1.46,2.06-.63.57-1.37,1.02-2.23,1.33-.85.3-1.78.46-2.79.46Z"/>
    </g>
  </g>
</svg>