<?xml version="1.0" encoding="UTF-8"?>
<svg id="Layer_2" data-name="Layer 2" xmlns="http://www.w3.org/2000/svg" viewBox="0 0 213.99 252.2">
  <defs>
    <style>
      .cls-1 {
        fill: #fff;
        stroke-width: 0px;
      }
    </style>
  </defs>
  <g id="Layer_1-2" data-name="Layer 1">
    <g>
      <path class="cls-1" d="M0,7.17h84.53v14.98h-.05v22.1c-8.4,38.81-17.11,47.48-55.99,55.9H11.89v2.87h16.6c38.88,8.42,47.59,17.09,55.99,55.91v21.68h.05v71.59H0V7.17Z"/>
      <path class="cls-1" d="M213.99,15.31l-35.38,71.63c-10.49-8.92-25.14-13.39-43.93-13.39-10.18,0-18.94,2.24-26.28,6.72-1.64,1-3.17,2.04-4.59,3.14-8.01-8.11-12.25-20-16.44-39.4v-4.56c.36-.53.77-1.1,1.21-1.7,1.44-1.91,4.55-5.25,9.3-10.01,4.78-4.78,9.89-9.07,15.31-12.89,5.43-3.84,12.44-7.27,21.03-10.31,8.6-3.02,17.34-4.54,26.24-4.54s18.3,1.28,27.21,3.84c8.92,2.56,15.45,5.11,19.6,7.63l6.72,3.84Z"/>
    </g>
  </g>
</svg>